<?xml version="1.0"?>
<svg xmlns="http://www.w3.org/2000/svg" id="_x31__x2C_5" enable-background="new 0 0 36 36" height="512px" viewBox="0 0 36 36" width="512px" class=""><g><path d="m4.167 27.623c0-6.917-3.583-11.667-3.583-15s1.916-10.333 17.249-10.333 17.583 9.417 17.583 13.083c.001 17.167-31.249 24.5-31.249 12.25z" fill="#efefef" data-original="#EFEFEF" class=""/><path d="m27.25 29.25h-18.5c-1.105 0-2-.895-2-2v-12.5h22.5v12.5c0 1.105-.895 2-2 2z" fill="#f3f3f1" data-original="#F3F3F1" class=""/><path d="m29.25 14.75h-22.5v-4c0-1.105.895-2 2-2h18.5c1.105 0 2 .895 2 2z" fill="#2fdf84" data-original="#2FDF84" class="" style="fill:#8FB1CC" data-old_color="#2fdf84"/><path d="m15.25 25.25h-4.5c-.552 0-1-.448-1-1v-4.5c0-.552.448-1 1-1h4.5c.552 0 1 .448 1 1v4.5c0 .552-.448 1-1 1z" fill="#2fdf84" data-original="#2FDF84" class="" style="fill:#8FB1CC" data-old_color="#2fdf84"/><path d="m11 8.75h-2.25c-1.105 0-2 .895-2 2v4h2.25v-4c0-1.105.895-2 2-2z" fill="#00b871" data-original="#00B871" class="active-path" style="fill:#759CC9" data-old_color="#00b871"/><path d="m12 24.25v-4.5c0-.552.448-1 1-1h-2.25c-.552 0-1 .448-1 1v4.5c0 .552.448 1 1 1h2.25c-.552 0-1-.448-1-1z" fill="#00b871" data-original="#00B871" class="active-path" style="fill:#759CC9" data-old_color="#00b871"/><path d="m9 27.25v-12.5h-2.25v12.5c0 1.105.895 2 2 2h2.25c-1.105 0-2-.895-2-2z" fill="#d5dbe1" data-original="#D5DBE1" class=""/><path d="m15.25 26h-4.5c-.965 0-1.75-.785-1.75-1.75v-4.5c0-.965.785-1.75 1.75-1.75h4.5c.965 0 1.75.785 1.75 1.75v4.5c0 .965-.785 1.75-1.75 1.75zm-4.5-6.5c-.138 0-.25.112-.25.25v4.5c0 .138.112.25.25.25h4.5c.138 0 .25-.112.25-.25v-4.5c0-.138-.112-.25-.25-.25z" data-original="#000000" class="" style="fill:#292929" data-old_color="#000000"/><path d="m22.75 25c-.214 0-.418-.091-.561-.252l-2-2.25 1.121-.996 1.401 1.576 2.946-3.788 1.184.921-3.5 4.5c-.137.176-.345.282-.567.289-.007 0-.016 0-.024 0z" data-original="#000000" class="" style="fill:#292929" data-old_color="#000000"/><path d="m27.25 30h-18.5c-1.517 0-2.75-1.233-2.75-2.75v-16.5c0-1.517 1.233-2.75 2.75-2.75h18.5c1.517 0 2.75 1.233 2.75 2.75v16.5c0 1.517-1.233 2.75-2.75 2.75zm-18.5-20.5c-.689 0-1.25.561-1.25 1.25v16.5c0 .689.561 1.25 1.25 1.25h18.5c.689 0 1.25-.561 1.25-1.25v-16.5c0-.689-.561-1.25-1.25-1.25z" data-original="#000000" class="" style="fill:#292929" data-old_color="#000000"/><path d="m6.75 14h22.5v1.5h-22.5z" data-original="#000000" class="" style="fill:#292929" data-old_color="#000000"/><path d="m11 6h1.5v6h-1.5z" data-original="#000000" class="" style="fill:#292929" data-old_color="#000000"/><path d="m23.5 6h1.5v6h-1.5z" data-original="#000000" class="" style="fill:#292929" data-old_color="#000000"/></g> </svg>
