<?xml version="1.0"?>
<svg xmlns="http://www.w3.org/2000/svg" id="_x31__x2C_5" enable-background="new 0 0 36 36" height="512px" viewBox="0 0 36 36" width="512px" class=""><g><path d="m27.623 4.167c-6.917 0-11.667-3.583-15-3.583s-10.333 1.916-10.333 17.249 9.417 17.583 13.083 17.583c17.167.001 24.5-31.249 12.25-31.249z" fill="#f3f3f1" data-original="#F3F3F1" class=""/><g fill="#a4afc1"></g><circle cx="24.5" cy="20.5" fill="#efefef" r="2.25" data-original="#EFEFEF" class=""/><path d="m27.25 25.75h-5.5c-1.105 0-2 .895-2 2v1.5h9.5v-1.5c0-1.105-.895-2-2-2z" fill="#efefef" data-original="#EFEFEF" class=""/><path d="m6.75 8.75v6.5c0 1.1.9 2 2 2h5.25l3.25 3v-3h2c1.1 0 2-.9 2-2v-6.5c0-1.1-.9-2-2-2h-10.5c-1.1 0-2 .9-2 2z" fill="#2fdf84" data-original="#2FDF84" class="" style="fill:#8FB1CC" data-old_color="#2fdf84"/><circle cx="10" cy="23" fill="#efefef" r="1.25" data-original="#EFEFEF" class=""/><path d="m11.25 26.75h-2.5c-1.105 0-2 .895-2 2v.5h6.5v-.5c0-1.105-.895-2-2-2z" fill="#efefef" data-original="#EFEFEF" class=""/><path d="m24.5 20.5c0-.831.455-1.548 1.125-1.938-.332-.193-.713-.312-1.125-.312-1.243 0-2.25 1.007-2.25 2.25s1.007 2.25 2.25 2.25c.412 0 .793-.119 1.125-.312-.67-.39-1.125-1.107-1.125-1.938z" fill="#d5dbe1" data-original="#D5DBE1" class=""/><path d="m24 25.75h-2.25c-1.105 0-2 .895-2 2v1.5h2.25v-1.5c0-1.105.895-2 2-2z" fill="#d5dbe1" data-original="#D5DBE1" class=""/><path d="m9 15.25v-6.5c0-1.1.9-2 2-2h-2.25c-1.1 0-2 .9-2 2v6.5c0 1.1.9 2 2 2h2.25c-1.1 0-2-.9-2-2z" fill="#00b871" data-original="#00B871" class="active-path" style="fill:#759CC9" data-old_color="#00b871"/><path d="m16.25 17.25h-2.25l3.25 3v-2.077z" fill="#00b871" data-original="#00B871" class="active-path" style="fill:#759CC9" data-old_color="#00b871"/><path d="m11 26.75h-2.25c-1.105 0-2 .895-2 2v.5h2.25v-.5c0-1.105.895-2 2-2z" fill="#d5dbe1" data-original="#D5DBE1" class=""/><path d="m24.5 23.5c-1.654 0-3-1.346-3-3s1.346-3 3-3 3 1.346 3 3-1.346 3-3 3zm0-4.5c-.827 0-1.5.673-1.5 1.5s.673 1.5 1.5 1.5 1.5-.673 1.5-1.5-.673-1.5-1.5-1.5z" data-original="#000000" class="" style="fill:#292929" data-old_color="#000000"/><path d="m29.25 30c-.414 0-.75-.336-.75-.75v-1.5c0-.689-.561-1.25-1.25-1.25h-5.5c-.689 0-1.25.561-1.25 1.25v1.5c0 .414-.336.75-.75.75s-.75-.336-.75-.75v-1.5c0-1.517 1.233-2.75 2.75-2.75h5.5c1.517 0 2.75 1.233 2.75 2.75v1.5c0 .414-.336.75-.75.75z" data-original="#000000" class="" style="fill:#292929" data-old_color="#000000"/><path d="m17.25 21c-.185 0-.367-.068-.509-.199l-3.034-2.801h-4.957c-1.517 0-2.75-1.233-2.75-2.75v-6.5c0-1.517 1.233-2.75 2.75-2.75h10.5c1.517 0 2.75 1.233 2.75 2.75v6.5c0 1.517-1.233 2.75-2.75 2.75h-1.25v2.25c0 .298-.177.567-.449.688-.097.041-.199.062-.301.062zm-8.5-13.5c-.689 0-1.25.561-1.25 1.25v6.5c0 .689.561 1.25 1.25 1.25h5.25c.188 0 .37.071.509.199l1.991 1.838v-1.287c0-.414.336-.75.75-.75h2c.689 0 1.25-.561 1.25-1.25v-6.5c0-.689-.561-1.25-1.25-1.25z" data-original="#000000" class="" style="fill:#292929" data-old_color="#000000"/><path d="m10 25c-1.103 0-2-.897-2-2s.897-2 2-2 2 .897 2 2-.897 2-2 2zm0-2.5c-.275 0-.5.225-.5.5s.225.5.5.5.5-.225.5-.5-.225-.5-.5-.5z" data-original="#000000" class="" style="fill:#292929" data-old_color="#000000"/><path d="m13.25 30c-.414 0-.75-.336-.75-.75v-.5c0-.689-.561-1.25-1.25-1.25h-2.5c-.689 0-1.25.561-1.25 1.25v.5c0 .414-.336.75-.75.75s-.75-.336-.75-.75v-.5c0-1.517 1.233-2.75 2.75-2.75h2.5c1.517 0 2.75 1.233 2.75 2.75v.5c0 .414-.336.75-.75.75z" data-original="#000000" class="" style="fill:#292929" data-old_color="#000000"/><path d="m17.25 14.5c-.173 0-.347-.059-.488-.181-.314-.27-.351-.743-.081-1.058l1.081-1.261-1.081-1.262c-.27-.314-.233-.788.081-1.058.315-.269.788-.233 1.058.081l1.5 1.75c.241.281.241.695 0 .977l-1.5 1.75c-.149.173-.359.262-.57.262z" data-original="#000000" class="" style="fill:#292929" data-old_color="#000000"/><path d="m10.75 14.5c-.211 0-.421-.089-.569-.262l-1.5-1.75c-.241-.281-.241-.695 0-.977l1.5-1.75c.271-.314.743-.351 1.058-.081s.351.743.081 1.058l-1.082 1.262 1.081 1.262c.27.314.233.788-.081 1.058-.141.12-.315.18-.488.18z" data-original="#000000" class="" style="fill:#292929" data-old_color="#000000"/><path d="m13.751 15c-.027 0-.056-.001-.084-.004-.411-.046-.708-.417-.662-.829l.5-4.5c.045-.411.41-.707.828-.663.411.046.708.417.662.829l-.5 4.5c-.042.383-.367.667-.744.667z" data-original="#000000" class="" style="fill:#292929" data-old_color="#000000"/></g> </svg>
