<?xml version="1.0"?>
<svg xmlns="http://www.w3.org/2000/svg" id="_x31__x2C_5" enable-background="new 0 0 36 36" height="512px" viewBox="0 0 36 36" width="512px" class=""><g transform="matrix(1 0 0 1 0 0)"><path d="m31.833 27.623c0-6.917 3.583-11.667 3.583-15s-1.916-10.333-17.249-10.333-17.584 9.417-17.584 13.083c0 17.167 31.25 24.5 31.25 12.25z" fill="#efefef" data-original="#EFEFEF" class="" style="fill:#EFEFEF"/><path d="m20.25 29.25h-10.5c-1.105 0-2-.895-2-2v-18.5c0-1.105.895-2 2-2h10.5c1.105 0 2 .895 2 2v18.5c0 1.105-.895 2-2 2z" fill="#f3f3f1" data-original="#F3F3F1" class="" style="fill:#F3F3F1"/><g fill="#2fdf84"><path d="m10.25 6.75c.828 0 1.5.672 1.5 1.5 0 .552.448 1 1 1h4.5c.552 0 1-.448 1-1 0-.828.672-1.5 1.5-1.5z" data-original="#2FDF84" class="" style="fill:#8FB1CC" data-old_color="#2FDF84"/><circle cx="27" cy="14" r="1.25" data-original="#2FDF84" class="" style="fill:#8FB1CC" data-old_color="#2FDF84"/><circle cx="23" cy="19" r="1.25" data-original="#2FDF84" class="" style="fill:#8FB1CC" data-old_color="#2FDF84"/><circle cx="17" cy="16" r="1.25" data-original="#2FDF84" class="" style="fill:#8FB1CC" data-old_color="#2FDF84"/></g><path d="m10 27.25v-18.5c0-1.105.895-2 2-2h-2.25c-1.105 0-2 .895-2 2v18.5c0 1.105.895 2 2 2h2.25c-1.105 0-2-.895-2-2z" fill="#d5dbe1" data-original="#D5DBE1" class="" style="fill:#D5DBE1"/><path d="m14 8.25c0-.828-.672-1.5-1.5-1.5h-2.25c.828 0 1.5.672 1.5 1.5 0 .552.448 1 1 1h2.25c-.552 0-1-.448-1-1z" fill="#00b871" data-original="#00B871" class="active-path" style="fill:#759CC9" data-old_color="#00b871"/><path d="m28 14c0-.19.049-.365.125-.526-.2-.425-.625-.724-1.125-.724-.69 0-1.25.56-1.25 1.25s.56 1.25 1.25 1.25c.5 0 .925-.299 1.125-.724-.076-.161-.125-.336-.125-.526z" fill="#00b871" data-original="#00B871" class="active-path" style="fill:#759CC9" data-old_color="#00b871"/><path d="m24 19c0-.19.049-.365.125-.526-.2-.425-.625-.724-1.125-.724-.69 0-1.25.56-1.25 1.25s.56 1.25 1.25 1.25c.5 0 .925-.299 1.125-.724-.076-.161-.125-.336-.125-.526z" fill="#00b871" data-original="#00B871" class="active-path" style="fill:#759CC9" data-old_color="#00b871"/><path d="m18 16c0-.19.049-.365.125-.526-.2-.425-.625-.724-1.125-.724-.69 0-1.25.56-1.25 1.25s.56 1.25 1.25 1.25c.5 0 .925-.299 1.125-.724-.076-.161-.125-.336-.125-.526z" fill="#00b871" data-original="#00B871" class="active-path" style="fill:#759CC9" data-old_color="#00b871"/><path d="m27 16c-1.103 0-2-.897-2-2s.897-2 2-2 2 .897 2 2-.897 2-2 2zm0-2.5c-.276 0-.5.225-.5.5s.224.5.5.5.5-.225.5-.5-.224-.5-.5-.5z" data-original="#000000" class="" data-old_color="#000000" style="fill:#292929"/><path d="m23 21c-1.103 0-2-.897-2-2s.897-2 2-2 2 .897 2 2-.897 2-2 2zm0-2.5c-.276 0-.5.225-.5.5s.224.5.5.5.5-.225.5-.5-.224-.5-.5-.5z" data-original="#000000" class="" data-old_color="#000000" style="fill:#292929"/><path d="m17 18c-1.103 0-2-.897-2-2s.897-2 2-2 2 .897 2 2-.897 2-2 2zm0-2.5c-.276 0-.5.225-.5.5s.224.5.5.5.5-.225.5-.5-.224-.5-.5-.5z" data-original="#000000" class="" data-old_color="#000000" style="fill:#292929"/><path d="m23.285 15.75h3.429v1.5h-3.429z" transform="matrix(.624 -.782 .782 .624 -3.492 25.743)" data-original="#000000" class="" data-old_color="#000000" style="fill:#292929"/><path d="m19.25 15.635h1.501v3.73h-1.501z" transform="matrix(.445 -.896 .896 .445 -4.573 27.62)" data-original="#000000" class="" data-old_color="#000000" style="fill:#292929"/><path d="m17.25 10h-4.5c-.965 0-1.75-.785-1.75-1.75 0-.413-.336-.75-.75-.75h-.75v-1.5h.75c1.241 0 2.25 1.01 2.25 2.25 0 .138.112.25.25.25h4.5c.138 0 .25-.112.25-.25 0-1.24 1.009-2.25 2.25-2.25h.75v1.5h-.75c-.414 0-.75.337-.75.75 0 .965-.785 1.75-1.75 1.75z" data-original="#000000" class="" data-old_color="#000000" style="fill:#292929"/><path d="m20.25 30h-10.5c-1.517 0-2.75-1.233-2.75-2.75v-18.5c0-1.517 1.233-2.75 2.75-2.75h10.5c1.517 0 2.75 1.233 2.75 2.75v6.58h-1.5v-6.58c0-.689-.561-1.25-1.25-1.25h-10.5c-.689 0-1.25.561-1.25 1.25v18.5c0 .689.561 1.25 1.25 1.25h10.5c.689 0 1.25-.561 1.25-1.25v-4.57h1.5v4.57c0 1.517-1.233 2.75-2.75 2.75z" data-original="#000000" class="" data-old_color="#000000" style="fill:#292929"/></g> </svg>
