<?xml version="1.0"?>
<svg xmlns="http://www.w3.org/2000/svg" id="_x31__x2C_5" enable-background="new 0 0 36 36" height="512px" viewBox="0 0 36 36" width="512px" class=""><g><path d="m8.377 31.833c6.917 0 11.667 3.583 15 3.583s10.333-1.916 10.333-17.249-9.417-17.584-13.083-17.584c-17.167 0-24.5 31.25-12.25 31.25z" fill="#f3f3f1" data-original="#F3F3F1" class=""/><path d="m29.25 22.75v2.5c0 .55-.45 1-1 1h-20.5c-.55 0-1-.45-1-1v-2.5z" fill="#2fdf84" data-original="#2FDF84" class="" style="fill:#8FB1CC" data-old_color="#2fdf84"/><path d="m29.25 11.75v11h-22.5v-11c0-.55.45-1 1-1h20.5c.55 0 1 .45 1 1z" fill="#efefef" data-original="#EFEFEF" class=""/><path d="m21.23 29.25h-6.48c1.25-1.25 1.48-3 1.48-3h3.52s.24 1.76 1.48 3z" fill="#efefef" data-original="#EFEFEF" class=""/><path d="m9 25.25v-2.5h-2.25v2.5c0 .55.45 1 1 1h2.25c-.55 0-1-.45-1-1z" fill="#00b871" data-original="#00B871" class="active-path" style="fill:#759CC9" data-old_color="#00b871"/><path d="m10 10.75h-2.25c-.55 0-1 .45-1 1v11h2.25v-11c0-.55.45-1 1-1z" fill="#d5dbe1" data-original="#D5DBE1" class=""/><path d="m16.23 26.25s-.23 1.75-1.48 3h2.25c1.25-1.25 1.48-3 1.48-3z" fill="#d5dbe1" data-original="#D5DBE1" class=""/><path d="m28.25 27h-20.5c-.965 0-1.75-.785-1.75-1.75v-13.5c0-.965.785-1.75 1.75-1.75h20.5c.965 0 1.75.785 1.75 1.75v13.5c0 .965-.785 1.75-1.75 1.75zm-20.5-15.5c-.138 0-.25.112-.25.25v13.5c0 .138.112.25.25.25h20.5c.138 0 .25-.112.25-.25v-13.5c0-.138-.112-.25-.25-.25z" data-original="#000000" class="" style="fill:#292929" data-old_color="#000000"/><path d="m29.25 23.5h-22.5c-.414 0-.75-.336-.75-.75s.336-.75.75-.75h22.5c.414 0 .75.336.75.75s-.336.75-.75.75z" data-original="#000000" class="" style="fill:#292929" data-old_color="#000000"/><path d="m21.25 30h-6.5c-.303 0-.577-.183-.693-.463s-.052-.603.163-.817c1.041-1.041 1.265-2.552 1.267-2.567.054-.411.432-.699.841-.646.411.054.7.431.646.841-.008.059-.147 1.066-.744 2.152h3.523c-.591-1.081-.738-2.088-.746-2.147-.057-.41.229-.789.64-.846.413-.056.788.229.846.638.007.045.232 1.469 1.184 2.488.195.136.323.361.323.617 0 .414-.336.75-.75.75z" data-original="#000000" class="" style="fill:#292929" data-old_color="#000000"/><path d="m21.25 19.5c-.173 0-.346-.059-.488-.181-.314-.27-.351-.743-.081-1.058l1.081-1.261-1.082-1.262c-.27-.314-.233-.788.081-1.058.315-.27.789-.232 1.058.081l1.5 1.75c.241.281.241.695 0 .977l-1.5 1.75c-.148.173-.358.262-.569.262z" data-original="#000000" class="" style="fill:#292929" data-old_color="#000000"/><path d="m14.75 19.5c-.211 0-.421-.089-.57-.262l-1.5-1.75c-.241-.281-.241-.695 0-.977l1.5-1.75c.27-.315.742-.352 1.058-.081.314.27.351.743.081 1.058l-1.081 1.262 1.082 1.262c.27.314.233.788-.081 1.058-.142.12-.316.18-.489.18z" data-original="#000000" class="" style="fill:#292929" data-old_color="#000000"/><path d="m17.25 21c-.056 0-.112-.006-.169-.019-.404-.093-.655-.496-.563-.899l1.5-6.5c.093-.404.497-.651.899-.563.404.093.655.496.563.899l-1.5 6.5c-.079.348-.388.582-.73.582z" data-original="#000000" class="" style="fill:#292929" data-old_color="#000000"/></g> </svg>
