<?xml version="1.0"?>
<svg xmlns="http://www.w3.org/2000/svg" id="_x31__x2C_5" enable-background="new 0 0 36 36" height="512px" viewBox="0 0 36 36" width="512px" class=""><g><g><path d="m31.833 27.623c0-6.917 3.583-11.667 3.583-15s-1.916-10.333-17.249-10.333-17.584 9.417-17.584 13.083c0 17.167 31.25 24.5 31.25 12.25z" fill="#efefef" data-original="#EFEFEF" class="" style="fill:#EFEFEF"/></g><g></g><g><path d="m27.25 28.25h-18.5c-1.105 0-2-.895-2-2v-15h22.5v15c0 1.105-.895 2-2 2z" fill="#f3f3f1" data-original="#F3F3F1" class="" style="fill:#F3F3F1"/></g><g><path d="m29.25 11.25h-22.5v-1.5c0-1.105.895-2 2-2h18.5c1.105 0 2 .895 2 2z" fill="#2fdf84" data-original="#2FDF84" class="" style="fill:#8FB1CC" data-old_color="#2fdf84"/></g><g><path d="m23.25 12.75c-2.683.05-5.637 1.642-7.468 3.757l-2.788 3.095 3.404 3.404 3.095-2.788c2.115-1.831 3.707-4.785 3.757-7.468z" fill="#2fdf84" data-original="#2FDF84" class="" style="fill:#8FB1CC" data-old_color="#2fdf84"/></g><g><path d="m19.382 20.316c-.031 1.768-.475 3.698-1.711 4.934l-.668-2.792z" fill="#2fdf84" data-original="#2FDF84" class="" style="fill:#8FB1CC" data-old_color="#2fdf84"/></g><g><path d="m12.871 24.961c-.506.506-3.121 1.289-3.121 1.289s.783-2.615 1.289-3.121 1.326-.506 1.832 0c.505.506.505 1.326 0 1.832z" fill="#2fdf84" data-original="#2FDF84" class="" style="fill:#8FB1CC" data-old_color="#2fdf84"/></g><g><path d="m15.684 16.618c-1.768.031-3.698.475-4.934 1.711l2.792.668z" fill="#2fdf84" data-original="#2FDF84" class="" style="fill:#8FB1CC" data-old_color="#2fdf84"/></g><g><path d="m19.382 20.316c-.031 1.768-.475 3.698-1.711 4.934l-.668-2.792z" fill="#00b871" data-original="#00B871" class="active-path" style="fill:#759CC9" data-old_color="#00b871"/></g><g><path d="m15.244 19.602 2.788-3.095c1.318-1.523 3.221-2.765 5.183-3.365.01-.131.032-.263.034-.393-2.683.05-5.637 1.642-7.468 3.757l-2.788 3.095 3.404 3.404 1.184-1.066z" fill="#00b871" data-original="#00B871" class="active-path" style="fill:#759CC9" data-old_color="#00b871"/></g><g><path d="m13.074 23.435c-.058-.107-.113-.216-.203-.306-.506-.506-1.326-.506-1.832 0s-1.289 3.121-1.289 3.121 1.617-.485 2.553-.938c.214-.626.507-1.413.771-1.877z" fill="#00b871" data-original="#00B871" class="active-path" style="fill:#759CC9" data-old_color="#00b871"/></g><g><path d="m13 18.33c.635-.635 1.453-1.058 2.338-1.326l.347-.385c-1.768.031-3.698.475-4.934 1.711l2.792.668.399-.443z" fill="#00b871" data-original="#00B871" class="active-path" style="fill:#759CC9" data-old_color="#00b871"/></g><g><path d="m9.25 26.25v-15h-2.5v15c0 1.105.895 2 2 2h2.5c-1.105 0-2-.895-2-2z" fill="#d5dbe1" data-original="#D5DBE1" style="fill:#D5DBE1"/></g><g><path d="m11 7.75h-2.25c-1.105 0-2 .895-2 2v1.5h2.25v-1.5c0-1.105.895-2 2-2z" fill="#00b871" data-original="#00B871" class="active-path" style="fill:#759CC9" data-old_color="#00b871"/></g><g><path d="m13.367 19.728-2.792-.668c-.264-.063-.473-.265-.547-.525-.074-.262-.001-.542.191-.734 1.203-1.205 3.14-1.891 5.451-1.932l.027 1.5c-.781.014-2.026.126-3.132.625l1.15.275z" data-original="#000000" class="" style="fill:#292929" data-old_color="#000000"/></g><g><path d="m16.397 23.756c-.192 0-.384-.073-.53-.22l-3.403-3.403c-.282-.282-.294-.735-.027-1.032l2.788-3.095c2.056-2.376 5.204-3.952 8.011-4.006.2.006.4.075.545.22s.224.341.22.545c-.054 2.807-1.63 5.955-4.017 8.021l-3.084 2.778c-.143.128-.323.192-.503.192zm-2.369-4.181 2.396 2.396 2.565-2.312c1.821-1.576 3.132-3.933 3.441-6.092-2.159.31-4.515 1.618-6.082 3.431z" data-original="#000000" class="" style="fill:#292929" data-old_color="#000000"/></g><g><path d="m17.67 26c-.068 0-.137-.009-.204-.028-.261-.074-.462-.283-.525-.547l-.668-2.792 1.459-.35.275 1.15c.499-1.105.611-2.351.625-3.132l1.5.027c-.041 2.312-.727 4.248-1.932 5.451-.142.144-.334.221-.53.221z" data-original="#000000" class="" style="fill:#292929" data-old_color="#000000"/></g><g><path d="m9.75 27c-.196 0-.388-.077-.53-.22-.195-.195-.268-.481-.188-.745.252-.841.9-2.859 1.478-3.437.797-.797 2.094-.796 2.893-.001.796.799.796 2.096.001 2.894-.001 0-.001 0-.001 0-.577.577-2.596 1.226-3.437 1.478-.071.02-.144.031-.216.031zm2.205-3.5c-.14 0-.279.054-.386.16-.138.151-.385.727-.634 1.405.679-.249 1.249-.495 1.407-.637.21-.213.209-.558-.003-.77-.105-.105-.244-.158-.384-.158z" data-original="#000000" class="" style="fill:#292929" data-old_color="#000000"/></g><g><path d="m27.25 30h-18.5c-1.517 0-2.75-1.233-2.75-2.75v-16.5c0-1.517 1.233-2.75 2.75-2.75h18.5c1.517 0 2.75 1.233 2.75 2.75v16.5c0 1.517-1.233 2.75-2.75 2.75zm-18.5-20.5c-.689 0-1.25.561-1.25 1.25v16.5c0 .689.561 1.25 1.25 1.25h18.5c.689 0 1.25-.561 1.25-1.25v-16.5c0-.689-.561-1.25-1.25-1.25z" data-original="#000000" class="" style="fill:#292929" data-old_color="#000000"/></g><g><path d="m6.75 11.5h9.5v1.5h-9.5z" data-original="#000000" class="" style="fill:#292929" data-old_color="#000000"/></g><g><path d="m25.75 11.5h3.25v1.5h-3.25z" data-original="#000000" class="" style="fill:#292929" data-old_color="#000000"/></g><g><path d="m2 28.5h32v1.5h-32z" data-original="#000000" class="" style="fill:#292929" data-old_color="#000000"/></g></g> </svg>
